<svg width="100" height="100" viewBox="0 0 100 100" fill="none" xmlns="http://www.w3.org/2000/svg">
<path d="M87.5 41.6667C87.5 70.8334 50 95.8334 50 95.8334C50 95.8334 12.5 70.8334 12.5 41.6667C12.5 31.7211 16.4509 22.1829 23.4835 15.1502C30.5161 8.11763 40.0544 4.16675 50 4.16675C59.9456 4.16675 69.4839 8.11763 76.5165 15.1502C83.5491 22.1829 87.5 31.7211 87.5 41.6667Z" stroke="black" stroke-width="2" stroke-linecap="round" stroke-linejoin="round"/>
<path d="M50 54.1667C56.9036 54.1667 62.5 48.5703 62.5 41.6667C62.5 34.7632 56.9036 29.1667 50 29.1667C43.0964 29.1667 37.5 34.7632 37.5 41.6667C37.5 48.5703 43.0964 54.1667 50 54.1667Z" stroke="black" stroke-width="2" stroke-linecap="round" stroke-linejoin="round"/>
</svg>
