<svg width="582" height="234" viewBox="0 0 582 234" fill="none" xmlns="http://www.w3.org/2000/svg">
<mask id="path-1-outside-1_67_4" maskUnits="userSpaceOnUse" x="220" y="35" width="220" height="157" fill="black">
<rect fill="white" x="220" y="35" width="220" height="157"/>
<path d="M299.523 139.785H317.492C317.036 149.551 315.051 157.982 311.535 165.078C308.085 172.109 303.039 177.513 296.398 181.289C289.823 185.065 281.587 186.953 271.691 186.953C264.595 186.953 258.182 185.553 252.453 182.754C246.724 179.954 241.809 175.951 237.707 170.742C233.671 165.469 230.578 159.154 228.43 151.797C226.281 144.44 225.207 136.172 225.207 126.992V100.723C225.207 91.6081 226.281 83.3724 228.43 76.0156C230.643 68.6589 233.801 62.3763 237.902 57.168C242.069 51.8945 247.115 47.8581 253.039 45.0586C259.029 42.2591 265.799 40.8594 273.352 40.8594C282.596 40.8594 290.409 42.7148 296.789 46.4258C303.234 50.0716 308.182 55.4427 311.633 62.5391C315.148 69.5703 317.102 78.1966 317.492 88.418H299.523C299.068 80.931 297.896 74.8438 296.008 70.1562C294.12 65.4036 291.32 61.9206 287.609 59.707C283.964 57.4284 279.211 56.2891 273.352 56.2891C268.143 56.2891 263.618 57.3307 259.777 59.4141C256.001 61.4974 252.876 64.4922 250.402 68.3984C247.993 72.2396 246.171 76.8945 244.934 82.3633C243.762 87.7669 243.176 93.8216 243.176 100.527V126.992C243.176 133.242 243.664 139.069 244.641 144.473C245.682 149.876 247.31 154.629 249.523 158.73C251.802 162.767 254.764 165.924 258.41 168.203C262.056 170.482 266.483 171.621 271.691 171.621C278.267 171.621 283.475 170.547 287.316 168.398C291.158 166.25 293.99 162.832 295.812 158.145C297.701 153.457 298.938 147.337 299.523 139.785ZM434.289 101.602V126.309C434.289 136.335 433.182 145.156 430.969 152.773C428.82 160.326 425.663 166.641 421.496 171.719C417.329 176.797 412.316 180.605 406.457 183.145C400.598 185.684 393.99 186.953 386.633 186.953C379.536 186.953 373.059 185.684 367.199 183.145C361.34 180.605 356.294 176.797 352.062 171.719C347.831 166.641 344.543 160.326 342.199 152.773C339.921 145.156 338.781 136.335 338.781 126.309V101.602C338.781 91.5755 339.921 82.7865 342.199 75.2344C344.478 67.6172 347.733 61.2695 351.965 56.1914C356.197 51.1133 361.242 47.3047 367.102 44.7656C372.961 42.1615 379.439 40.8594 386.535 40.8594C393.892 40.8594 400.5 42.1615 406.359 44.7656C412.284 47.3047 417.297 51.1133 421.398 56.1914C425.565 61.2695 428.755 67.6172 430.969 75.2344C433.182 82.7865 434.289 91.5755 434.289 101.602ZM416.516 126.309V101.406C416.516 93.5938 415.865 86.888 414.562 81.2891C413.26 75.625 411.34 71.0026 408.801 67.4219C406.262 63.8411 403.137 61.2044 399.426 59.5117C395.715 57.7539 391.418 56.875 386.535 56.875C381.913 56.875 377.746 57.7539 374.035 59.5117C370.389 61.2044 367.264 63.8411 364.66 67.4219C362.056 71.0026 360.038 75.625 358.605 81.2891C357.238 86.888 356.555 93.5938 356.555 101.406V126.309C356.555 134.186 357.238 140.957 358.605 146.621C360.038 152.22 362.056 156.842 364.66 160.488C367.329 164.069 370.52 166.738 374.23 168.496C377.941 170.189 382.076 171.035 386.633 171.035C391.516 171.035 395.812 170.189 399.523 168.496C403.299 166.738 406.424 164.069 408.898 160.488C411.438 156.842 413.326 152.22 414.562 146.621C415.865 140.957 416.516 134.186 416.516 126.309Z"/>
</mask>
<path d="M299.523 139.785V134.785H294.896L294.538 139.398L299.523 139.785ZM317.492 139.785L322.487 140.018L322.731 134.785H317.492V139.785ZM311.535 165.078L307.055 162.859L307.051 162.867L307.047 162.875L311.535 165.078ZM296.398 181.289L293.927 176.943L293.918 176.948L293.909 176.953L296.398 181.289ZM237.707 170.742L233.737 173.781L233.758 173.809L233.779 173.836L237.707 170.742ZM228.43 76.0156L223.642 74.575L223.636 74.5945L223.63 74.614L228.43 76.0156ZM237.902 57.168L233.979 54.0682L233.974 54.0745L237.902 57.168ZM253.039 45.0586L250.922 40.5289L250.912 40.5334L250.903 40.5379L253.039 45.0586ZM296.789 46.4258L294.275 50.7479L294.301 50.763L294.327 50.7778L296.789 46.4258ZM311.633 62.5391L307.136 64.7255L307.148 64.7504L307.161 64.7751L311.633 62.5391ZM317.492 88.418V93.418H322.687L322.489 88.227L317.492 88.418ZM299.523 88.418L294.533 88.7218L294.819 93.418H299.523V88.418ZM296.008 70.1562L291.361 72.0022L291.365 72.0133L291.37 72.0243L296.008 70.1562ZM287.609 59.707L284.959 63.947L285.003 63.9745L285.048 64.0011L287.609 59.707ZM259.777 59.4141L257.394 55.0189L257.378 55.0275L257.362 55.0362L259.777 59.4141ZM250.402 68.3984L246.178 65.7232L246.172 65.7326L246.166 65.742L250.402 68.3984ZM244.934 82.3633L240.057 81.2602L240.052 81.2819L240.047 81.3036L244.934 82.3633ZM244.641 144.473L239.72 145.362L239.726 145.391L239.731 145.419L244.641 144.473ZM249.523 158.73L245.123 161.105L245.146 161.147L245.169 161.188L249.523 158.73ZM258.41 168.203L255.76 172.443L258.41 168.203ZM295.812 158.145L291.175 156.276L291.163 156.304L291.152 156.332L295.812 158.145ZM299.523 144.785H317.492V134.785H299.523V144.785ZM312.498 139.552C312.067 148.785 310.201 156.509 307.055 162.859L316.015 167.298C319.901 159.455 322.006 150.317 322.487 140.018L312.498 139.552ZM307.047 162.875C304.026 169.03 299.672 173.676 293.927 176.943L298.87 185.636C306.406 181.35 312.143 175.189 316.024 167.281L307.047 162.875ZM293.909 176.953C288.288 180.181 280.973 181.953 271.691 181.953V191.953C282.201 191.953 291.358 189.949 298.888 185.625L293.909 176.953ZM271.691 181.953C265.269 181.953 259.62 180.691 254.648 178.262L250.258 187.246C256.745 190.416 263.921 191.953 271.691 191.953V181.953ZM254.648 178.262C249.622 175.805 245.291 172.29 241.635 167.649L233.779 173.836C238.327 179.611 243.826 184.104 250.258 187.246L254.648 178.262ZM241.677 167.703C238.069 162.989 235.231 157.25 233.229 150.395L223.63 153.199C225.925 161.058 229.272 167.949 233.737 173.781L241.677 167.703ZM233.229 150.395C231.237 143.573 230.207 135.788 230.207 126.992H220.207C220.207 136.556 221.326 145.307 223.63 153.199L233.229 150.395ZM230.207 126.992V100.723H220.207V126.992H230.207ZM230.207 100.723C230.207 91.9956 231.236 84.2422 233.229 77.4173L223.63 74.614C221.326 82.5026 220.207 91.2206 220.207 100.723H230.207ZM233.218 77.4563C235.279 70.6054 238.173 64.9059 241.831 60.2614L233.974 54.0745C229.429 59.8467 226.007 66.7123 223.642 74.575L233.218 77.4563ZM241.826 60.2678C245.527 55.5834 249.966 52.0407 255.175 49.5793L250.903 40.5379C244.263 43.6755 238.611 48.2057 233.979 54.0682L241.826 60.2678ZM255.156 49.5882C260.395 47.1398 266.427 45.8594 273.352 45.8594V35.8594C265.172 35.8594 257.663 37.3784 250.922 40.5289L255.156 49.5882ZM273.352 45.8594C281.934 45.8594 288.829 47.58 294.275 50.7479L299.303 42.1037C291.989 37.8497 283.259 35.8594 273.352 35.8594V45.8594ZM294.327 50.7778C299.831 53.8912 304.098 58.4775 307.136 64.7255L316.129 60.3526C312.266 52.4079 306.637 46.252 299.251 42.0738L294.327 50.7778ZM307.161 64.7751C310.277 71.0087 312.125 78.8936 312.496 88.6089L322.489 88.227C322.079 77.4996 320.019 68.132 316.105 60.303L307.161 64.7751ZM317.492 83.418H299.523V93.418H317.492V83.418ZM304.514 88.1142C304.04 80.3244 302.807 73.6537 300.646 68.2882L291.37 72.0243C292.985 76.0338 294.095 81.5376 294.533 88.7218L304.514 88.1142ZM300.655 68.3103C298.437 62.7288 294.993 58.2892 290.171 55.4129L285.048 64.0011C287.648 65.552 289.802 68.0785 291.361 72.0022L300.655 68.3103ZM290.259 55.467C285.58 52.5424 279.819 51.2891 273.352 51.2891V61.2891C278.602 61.2891 282.347 62.3144 284.959 63.947L290.259 55.467ZM273.352 51.2891C267.47 51.2891 262.095 52.469 257.394 55.0189L262.161 63.8092C265.142 62.1925 268.816 61.2891 273.352 61.2891V51.2891ZM257.362 55.0362C252.797 57.555 249.069 61.1591 246.178 65.7232L254.626 71.0737C256.684 67.8253 259.206 65.4398 262.193 63.792L257.362 55.0362ZM246.166 65.742C243.396 70.1589 241.39 75.3664 240.057 81.2602L249.81 83.4664C250.951 78.4226 252.591 74.3203 254.638 71.0549L246.166 65.742ZM240.047 81.3036C238.786 87.1197 238.176 93.5378 238.176 100.527H248.176C248.176 94.1055 248.738 88.4142 249.82 83.423L240.047 81.3036ZM238.176 100.527V126.992H248.176V100.527H238.176ZM238.176 126.992C238.176 133.5 238.684 139.628 239.72 145.362L249.561 143.583C248.644 138.51 248.176 132.984 248.176 126.992H238.176ZM239.731 145.419C240.852 151.234 242.629 156.484 245.123 161.105L253.924 156.356C251.991 152.774 250.513 148.518 249.55 143.526L239.731 145.419ZM245.169 161.188C247.825 165.893 251.352 169.688 255.76 172.443L261.06 163.963C258.177 162.161 255.779 159.64 253.878 156.272L245.169 161.188ZM255.76 172.443C260.354 175.314 265.745 176.621 271.691 176.621V166.621C267.221 166.621 263.758 165.649 261.06 163.963L255.76 172.443ZM271.691 176.621C278.731 176.621 284.891 175.484 289.757 172.762L284.876 164.035C282.06 165.61 277.803 166.621 271.691 166.621V176.621ZM289.757 172.762C294.755 169.967 298.292 165.563 300.473 159.957L291.152 156.332C289.687 160.101 287.56 162.533 284.876 164.035L289.757 172.762ZM300.45 160.013C302.599 154.679 303.901 148.005 304.508 140.172L294.538 139.398C293.974 146.669 292.802 152.235 291.175 156.276L300.45 160.013ZM430.969 152.773L426.167 151.378L426.163 151.392L426.16 151.405L430.969 152.773ZM342.199 152.773L337.409 154.206L337.416 154.231L337.424 154.255L342.199 152.773ZM342.199 75.2344L346.986 76.6787L346.989 76.6674L342.199 75.2344ZM367.102 44.7656L369.09 49.3534L369.111 49.3441L369.132 49.3347L367.102 44.7656ZM406.359 44.7656L404.329 49.3347L404.359 49.3482L404.39 49.3614L406.359 44.7656ZM421.398 56.1914L417.509 59.3331L417.521 59.3481L417.533 59.363L421.398 56.1914ZM430.969 75.2344L426.167 76.6297L426.171 76.6407L430.969 75.2344ZM414.562 81.2891L409.69 82.4093L409.692 82.4216L414.562 81.2891ZM399.426 59.5117L397.285 64.0304L397.318 64.0458L397.351 64.0608L399.426 59.5117ZM374.035 59.5117L376.141 64.0468L376.158 64.0387L376.176 64.0304L374.035 59.5117ZM358.605 81.2891L353.758 80.0633L353.753 80.0831L353.748 80.103L358.605 81.2891ZM358.605 146.621L353.745 147.794L353.753 147.827L353.761 147.86L358.605 146.621ZM364.66 160.488L360.591 163.394L360.621 163.436L360.651 163.477L364.66 160.488ZM374.23 168.496L372.09 173.015L372.123 173.03L372.155 173.045L374.23 168.496ZM399.523 168.496L401.598 173.045L401.616 173.037L401.634 173.029L399.523 168.496ZM408.898 160.488L404.795 157.631L404.79 157.638L404.785 157.646L408.898 160.488ZM414.562 146.621L409.69 145.501L409.685 145.522L409.68 145.542L414.562 146.621ZM429.289 101.602V126.309H439.289V101.602H429.289ZM429.289 126.309C429.289 135.981 428.22 144.315 426.167 151.378L435.77 154.169C438.145 145.997 439.289 136.689 439.289 126.309H429.289ZM426.16 151.405C424.163 158.424 421.286 164.092 417.631 168.547L425.361 174.89C430.039 169.189 433.478 162.227 435.778 154.142L426.16 151.405ZM417.631 168.547C413.953 173.029 409.578 176.343 404.469 178.557L408.445 187.732C415.055 184.868 420.705 180.565 425.361 174.89L417.631 168.547ZM404.469 178.557C399.325 180.786 393.409 181.953 386.633 181.953V191.953C394.57 191.953 401.87 190.582 408.445 187.732L404.469 178.557ZM386.633 181.953C380.144 181.953 374.353 180.795 369.187 178.557L365.211 187.732C371.765 190.572 378.929 191.953 386.633 191.953V181.953ZM369.187 178.557C364.071 176.34 359.653 173.017 355.904 168.518L348.221 174.92C352.936 180.577 358.609 184.871 365.211 187.732L369.187 178.557ZM355.904 168.518C352.167 164.034 349.161 158.336 346.975 151.291L337.424 154.255C339.925 162.316 343.494 169.247 348.221 174.92L355.904 168.518ZM346.989 151.34C344.881 144.291 343.781 135.97 343.781 126.309H333.781C333.781 136.7 334.96 146.022 337.409 154.206L346.989 151.34ZM343.781 126.309V101.602H333.781V126.309H343.781ZM343.781 101.602C343.781 91.9391 344.881 83.6555 346.986 76.6787L337.412 73.7901C334.96 81.9174 333.781 91.212 333.781 101.602H343.781ZM346.989 76.6674C349.113 69.569 352.085 63.8573 355.806 59.3923L348.124 52.9905C343.381 58.6818 339.843 65.6654 337.409 73.8014L346.989 76.6674ZM355.806 59.3923C359.555 54.8932 363.973 51.5704 369.09 49.3534L365.114 40.1778C358.511 43.039 352.838 47.3333 348.124 52.9905L355.806 59.3923ZM369.132 49.3347C374.287 47.0436 380.063 45.8594 386.535 45.8594V35.8594C378.814 35.8594 371.635 37.2793 365.071 40.1966L369.132 49.3347ZM386.535 45.8594C393.295 45.8594 399.196 47.0536 404.329 49.3347L408.39 40.1966C401.804 37.2694 394.489 35.8594 386.535 35.8594V45.8594ZM404.39 49.3614C409.555 51.5752 413.912 54.8805 417.509 59.3331L425.288 53.0497C420.681 47.3461 415.012 43.0342 408.329 40.1699L404.39 49.3614ZM417.533 59.363C421.192 63.8218 424.104 69.5299 426.167 76.6296L435.77 73.8391C433.406 65.7045 429.939 58.7173 425.264 53.0198L417.533 59.363ZM426.171 76.6407C428.219 83.631 429.289 91.928 429.289 101.602H439.289C439.289 91.223 438.145 81.9419 435.767 73.828L426.171 76.6407ZM421.516 126.309V101.406H411.516V126.309H421.516ZM421.516 101.406C421.516 93.3386 420.846 86.2322 419.433 80.1565L409.692 82.4216C410.884 87.5438 411.516 93.8489 411.516 101.406H421.516ZM419.435 80.1689C418.032 74.0634 415.897 68.7858 412.879 64.5297L404.722 70.314C406.782 73.2194 408.489 77.1866 409.69 82.4093L419.435 80.1689ZM412.879 64.5297C409.87 60.2863 406.075 57.0491 401.501 54.9626L397.351 64.0608C400.198 65.3598 402.653 67.396 404.722 70.314L412.879 64.5297ZM401.566 54.993C397.071 52.8639 392.02 51.875 386.535 51.875V61.875C390.816 61.875 394.358 62.6439 397.285 64.0304L401.566 54.993ZM386.535 51.875C381.266 51.875 376.354 52.8806 371.895 54.993L376.176 64.0304C379.138 62.6273 382.56 61.875 386.535 61.875V51.875ZM371.93 54.9767C367.436 57.0628 363.669 60.2842 360.616 64.481L368.704 70.3627C370.86 67.3981 373.342 65.346 376.141 64.0468L371.93 54.9767ZM360.616 64.481C357.539 68.7128 355.299 73.9684 353.758 80.0633L363.453 82.5148C364.776 77.2816 366.573 73.2924 368.704 70.3627L360.616 64.481ZM353.748 80.103C352.259 86.1997 351.555 93.3252 351.555 101.406H361.555C361.555 93.8623 362.217 87.5764 363.463 82.4751L353.748 80.103ZM351.555 101.406V126.309H361.555V101.406H351.555ZM351.555 126.309C351.555 134.453 352.259 141.639 353.745 147.794L363.466 145.448C362.217 140.275 361.555 133.919 361.555 126.309H351.555ZM353.761 147.86C355.305 153.893 357.541 159.123 360.591 163.394L368.729 157.582C366.571 154.562 364.771 150.547 363.449 145.382L353.761 147.86ZM360.651 163.477C363.765 167.654 367.577 170.877 372.09 173.015L376.371 163.977C373.462 162.599 370.894 160.484 368.669 157.5L360.651 163.477ZM372.155 173.045C376.59 175.068 381.444 176.035 386.633 176.035V166.035C382.707 166.035 379.292 165.309 376.305 163.947L372.155 173.045ZM386.633 176.035C392.093 176.035 397.121 175.088 401.598 173.045L397.448 163.947C394.504 165.29 390.939 166.035 386.633 166.035V176.035ZM401.634 173.029C406.253 170.879 410.056 167.609 413.012 163.33L404.785 157.646C402.793 160.529 400.346 162.598 397.413 163.963L401.634 173.029ZM413.001 163.346C416.005 159.032 418.106 153.76 419.445 147.7L409.68 145.542C408.545 150.68 406.87 154.652 404.795 157.631L413.001 163.346ZM419.435 147.741C420.846 141.606 421.516 134.44 421.516 126.309H411.516C411.516 133.933 410.883 140.308 409.69 145.501L419.435 147.741Z" fill="black" mask="url(#path-1-outside-1_67_4)"/>
<mask id="path-3-outside-2_67_4" maskUnits="userSpaceOnUse" x="3" y="40" width="208" height="147" fill="black">
<rect fill="white" x="3" y="40" width="208" height="147"/>
<path d="M61.0352 42.8125V185H43.2617V42.8125H61.0352ZM98.4375 42.8125V58.2422H5.95703V42.8125H98.4375ZM157.715 55.4102L118.848 185H100.488L146.289 42.8125H157.812L157.715 55.4102ZM189.16 185L150.293 55.4102L150.098 42.8125H161.719L207.52 185H189.16ZM189.16 132.363V147.793H120.605V132.363H189.16Z"/>
</mask>
<path d="M61.0352 42.8125V185H43.2617V42.8125H61.0352ZM98.4375 42.8125V58.2422H5.95703V42.8125H98.4375ZM157.715 55.4102L118.848 185H100.488L146.289 42.8125H157.812L157.715 55.4102ZM189.16 185L150.293 55.4102L150.098 42.8125H161.719L207.52 185H189.16ZM189.16 132.363V147.793H120.605V132.363H189.16Z" fill="black"/>
<path d="M61.0352 42.8125V185H43.2617V42.8125H61.0352ZM98.4375 42.8125V58.2422H5.95703V42.8125H98.4375ZM157.715 55.4102L118.848 185H100.488L146.289 42.8125H157.812L157.715 55.4102ZM189.16 185L150.293 55.4102L150.098 42.8125H161.719L207.52 185H189.16ZM189.16 132.363V147.793H120.605V132.363H189.16Z" fill="black" fill-opacity="0.2"/>
<path d="M61.0352 42.8125H63.0352V40.8125H61.0352V42.8125ZM61.0352 185V187H63.0352V185H61.0352ZM43.2617 185H41.2617V187H43.2617V185ZM43.2617 42.8125V40.8125H41.2617V42.8125H43.2617ZM98.4375 42.8125H100.438V40.8125H98.4375V42.8125ZM98.4375 58.2422V60.2422H100.438V58.2422H98.4375ZM5.95703 58.2422H3.95703V60.2422H5.95703V58.2422ZM5.95703 42.8125V40.8125H3.95703V42.8125H5.95703ZM59.0352 42.8125V185H63.0352V42.8125H59.0352ZM61.0352 183H43.2617V187H61.0352V183ZM45.2617 185V42.8125H41.2617V185H45.2617ZM43.2617 44.8125H61.0352V40.8125H43.2617V44.8125ZM96.4375 42.8125V58.2422H100.438V42.8125H96.4375ZM98.4375 56.2422H5.95703V60.2422H98.4375V56.2422ZM7.95703 58.2422V42.8125H3.95703V58.2422H7.95703ZM5.95703 44.8125H98.4375V40.8125H5.95703V44.8125ZM157.715 55.4102L159.631 55.9847L159.713 55.7112L159.715 55.4257L157.715 55.4102ZM118.848 185V187H120.336L120.763 185.575L118.848 185ZM100.488 185L98.5846 184.387L97.7429 187H100.488V185ZM146.289 42.8125V40.8125H144.832L144.385 42.1993L146.289 42.8125ZM157.812 42.8125L159.812 42.828L159.828 40.8125H157.812V42.8125ZM189.16 185L187.244 185.575L187.672 187H189.16V185ZM150.293 55.4102L148.293 55.4412L148.298 55.7188L148.377 55.9847L150.293 55.4102ZM150.098 42.8125V40.8125H148.066L148.098 42.8435L150.098 42.8125ZM161.719 42.8125L163.622 42.1993L163.176 40.8125H161.719V42.8125ZM207.52 185V187H210.265L209.423 184.387L207.52 185ZM189.16 132.363H191.16V130.363H189.16V132.363ZM189.16 147.793V149.793H191.16V147.793H189.16ZM120.605 147.793H118.605V149.793H120.605V147.793ZM120.605 132.363V130.363H118.605V132.363H120.605ZM155.799 54.8356L116.932 184.425L120.763 185.575L159.631 55.9847L155.799 54.8356ZM118.848 183H100.488V187H118.848V183ZM102.392 185.613L148.193 43.4257L144.385 42.1993L98.5846 184.387L102.392 185.613ZM146.289 44.8125H157.812V40.8125H146.289V44.8125ZM155.813 42.797L155.715 55.3947L159.715 55.4257L159.812 42.828L155.813 42.797ZM191.076 184.425L152.209 54.8356L148.377 55.9847L187.244 185.575L191.076 184.425ZM152.293 55.3792L152.097 42.7815L148.098 42.8435L148.293 55.4412L152.293 55.3792ZM150.098 44.8125H161.719V40.8125H150.098V44.8125ZM159.815 43.4257L205.616 185.613L209.423 184.387L163.622 42.1993L159.815 43.4257ZM207.52 183H189.16V187H207.52V183ZM187.16 132.363V147.793H191.16V132.363H187.16ZM189.16 145.793H120.605V149.793H189.16V145.793ZM122.605 147.793V132.363H118.605V147.793H122.605ZM120.605 134.363H189.16V130.363H120.605V134.363Z" fill="black" mask="url(#path-3-outside-2_67_4)"/>
</svg>
