<svg width="100" height="100" viewBox="0 0 100 100" fill="none" xmlns="http://www.w3.org/2000/svg">
<path d="M25 8.33325L12.5 24.9999V83.3333C12.5 85.5434 13.378 87.663 14.9408 89.2258C16.5036 90.7886 18.6232 91.6666 20.8333 91.6666H79.1667C81.3768 91.6666 83.4964 90.7886 85.0592 89.2258C86.622 87.663 87.5 85.5434 87.5 83.3333V24.9999L75 8.33325H25Z" stroke="black" stroke-width="2" stroke-linecap="round" stroke-linejoin="round"/>
<path d="M12.5 25H87.5" stroke="black" stroke-width="2" stroke-linecap="round" stroke-linejoin="round"/>
<path d="M66.6667 41.6667C66.6667 46.087 64.9108 50.3263 61.7852 53.4519C58.6595 56.5775 54.4203 58.3334 50 58.3334C45.5798 58.3334 41.3405 56.5775 38.2149 53.4519C35.0893 50.3263 33.3334 46.087 33.3334 41.6667" stroke="black" stroke-width="2" stroke-linecap="round" stroke-linejoin="round"/>
</svg>
